<svg id="Ebene_1" data-name="Ebene 1" xmlns="http://www.w3.org/2000/svg" xmlns:xlink="http://www.w3.org/1999/xlink" viewBox="0 0 335.28 273.48"><defs><style>.cls-1{fill:none;stroke:#272e62;stroke-miterlimit:10;stroke-width:2px;}.cls-2{fill:url(#Unbenannter_Verlauf_21);}.cls-3{fill:url(#Unbenannter_Verlauf_21-2);}.cls-4{fill:url(#Unbenannter_Verlauf_21-3);}.cls-5{fill:url(#Unbenannter_Verlauf_21-4);}.cls-6{fill:url(#Unbenannter_Verlauf_21-5);}.cls-7,.cls-8{font-size:10px;fill:#1d1d1b;}.cls-7{font-family:OpenSans-Bold, Open Sans;font-weight:700;}.cls-8{font-family:OpenSans, Open Sans;}.cls-9{letter-spacing:-0.02em;}.cls-10{letter-spacing:-0.13em;}.cls-11{fill:url(#Unbenannter_Verlauf_21-6);}.cls-12{fill:url(#Unbenannter_Verlauf_21-7);}</style><linearGradient id="Unbenannter_Verlauf_21" x1="80.72" y1="22.31" x2="88.78" y2="22.31" gradientUnits="userSpaceOnUse"><stop offset="0" stop-color="#2d2e83"/><stop offset="1" stop-color="#008d36"/></linearGradient><linearGradient id="Unbenannter_Verlauf_21-2" x1="80.72" y1="77" x2="88.78" y2="77" xlink:href="#Unbenannter_Verlauf_21"/><linearGradient id="Unbenannter_Verlauf_21-3" x1="80.97" y1="149.98" x2="89.03" y2="149.98" xlink:href="#Unbenannter_Verlauf_21"/><linearGradient id="Unbenannter_Verlauf_21-4" x1="80.72" y1="267.27" x2="88.78" y2="267.27" xlink:href="#Unbenannter_Verlauf_21"/><linearGradient id="Unbenannter_Verlauf_21-5" x1="80.97" y1="207.11" x2="89.03" y2="207.11" xlink:href="#Unbenannter_Verlauf_21"/><linearGradient id="Unbenannter_Verlauf_21-6" x1="157.13" y1="5.85" x2="315.14" y2="5.85" xlink:href="#Unbenannter_Verlauf_21"/><linearGradient id="Unbenannter_Verlauf_21-7" x1="142.26" y1="190.57" x2="314.74" y2="190.57" xlink:href="#Unbenannter_Verlauf_21"/></defs><line class="cls-1" x1="84.75" y1="24.29" x2="84.75" y2="88.44"/><line class="cls-1" x1="84.75" y1="88.44" x2="84.75" y2="153.08"/><line class="cls-1" x1="84.75" y1="204.69" x2="84.75" y2="264.25"/><circle class="cls-2" cx="84.75" cy="22.31" r="4.03"/><circle class="cls-3" cx="84.75" cy="77" r="4.03"/><circle class="cls-4" cx="85" cy="149.98" r="4.03"/><circle class="cls-5" cx="84.75" cy="267.27" r="4.03"/><circle class="cls-6" cx="85" cy="207.11" r="4.03"/><text class="cls-7" transform="translate(99.36 25.72)">FIRST STEPS 2019</text><text class="cls-7" transform="translate(0.74 25.72)">AUGUST 2019</text><text class="cls-7" transform="translate(0.74 80.25)">AUGUST 2019</text><text class="cls-7" transform="translate(0.74 153.23)">JANUAR 2020</text><text class="cls-7" transform="translate(0.74 210.36)">FEBRUAR 2020</text><text class="cls-7" transform="translate(1.9 258.55)">BIS: <tspan x="0" y="12">AUGUST 2020</tspan></text><text class="cls-8" x="-101.39" y="-157.52"><tspan x="99.36" y="50.97" xml:space="preserve">•  Einstieg in die Lehre bei Swisscom</tspan></text><text class="cls-8" transform="translate(99.36 95.61)"><tspan xml:space="preserve">•  Gestaltung Factsheets</tspan><tspan x="0" y="12">• </tspan><tspan class="cls-9" x="6.36" y="12">	</tspan><tspan x="8.76" y="12">Illustrationen mitgestaltet</tspan><tspan x="0" y="24">• </tspan><tspan class="cls-10" x="6.36" y="24">	</tspan><tspan x="7.65" y="24">Entwürfe für neuen Webseitenauftritt </tspan><tspan x="0" y="36" xml:space="preserve">   mitentwickelt</tspan><tspan x="0" y="48">• Mitarbeit bei Projekten</tspan></text><text class="cls-8" x="-101.39" y="-157.52"><tspan x="95.92" y="238.33" xml:space="preserve"> • Skype for Business, Teams und O365 allgemein</tspan><tspan x="95.92" y="250.33" xml:space="preserve"> • Interne &amp; Externe Kundenschulungen</tspan></text><text class="cls-7" transform="translate(0.93 8.57)">ABSOLVIERTE QUALIPROJEKTE</text><rect class="cls-11" x="157.13" y="4.98" width="158.01" height="1.73"/><text class="cls-7" transform="translate(0.53 193.29)">AKTUELLES QUALIPROJEKT</text><rect class="cls-12" x="142.26" y="189.71" width="172.48" height="1.73"/><text class="cls-7" transform="translate(100.19 81.74)">SWISSCOM HEALTH MARKETING-TEAM</text><text class="cls-7" transform="translate(99.51 210.36)">WORK SMART SPECIALIST</text></svg>